<svg xmlns="http://www.w3.org/2000/svg" width="50" height="50" viewBox="0 0 2000 2000">
  <metadata><?xpacket begin="﻿" id="W5M0MpCehiHzreSzNTczkc9d"?>
<x:xmpmeta xmlns:x="adobe:ns:meta/" x:xmptk="Adobe XMP Core 5.6-c142 79.160924, 2017/07/13-01:06:39        ">
   <rdf:RDF xmlns:rdf="http://www.w3.org/1999/02/22-rdf-syntax-ns#">
      <rdf:Description rdf:about=""/>
   </rdf:RDF>
</x:xmpmeta>
                                                                                                    
                                                                                                    
                                                                                                    
                                                                                                    
                                                                                                    
                                                                                                    
                                                                                                    
                                                                                                    
                                                                                                    
                                                                                                    
                                                                                                    
                                                                                                    
                                                                                                    
                                                                                                    
                                                                                                    
                                                                                                    
                                                                                                    
                                                                                                    
                                                                                                    
                                                                                                    
                           
<?xpacket end="w"?></metadata>
<defs>
    <style>
      .cls-1 {
        fill: #a99985;
        stroke: #dad2bc;
        stroke-width: 56.53px;
      }

      .cls-1, .cls-2 {
        fill-rule: evenodd;
      }

      .cls-2 {
        fill: #252323;
      }
    </style>
  </defs>
  <path id="Ellipse_1_copy" data-name="Ellipse 1 copy" class="cls-1" d="M1001.54,160.008c532.9,0,964.91,375.412,964.91,838.506s-432.01,838.506-964.91,838.506S36.62,1461.61,36.62,998.514,468.628,160.008,1001.54,160.008Z"/>
  <path id="Shoes_Pro_Shops_copy" data-name="Shoes Pro Shops copy" class="cls-2" d="M668.7,311.511q62.813,0,95.571-18.03,57.618-31.551,70.438-90.749,9.625-44.467-16.332-72.419t-76.752-27.946q-67.625,0-124.436,38.914t-75.7,98.412H490.089q-26.451,0-43.465,11.268t-21.5,32q-6.18,28.551,35.3,28.547h81.149q7.18,23.74,28.906,55.291,31.047,45.376,38.691,67.01t1.915,48.079q-9.042,41.77-46.065,72.569t-78.2,30.8q-37.271,0-56.421-23.288T418.98,502.925q4.88-22.538,23.713-45.675t42.369-36.059l27.231-14.724q26.567-14.424,30.859-34.257,3.186-14.719-5.015-24.039t-24.432-9.315q-31.262,0-74.534,29.148-81.634,54.99-99.455,137.325-14.571,67.308,20.876,110.431t105.476,43.121q90.461,0,160.223-64Q677.245,548.3,690.648,486.4q13.791-63.7-20.135-120.8l-11.766-19.232-20.1-34.857H668.7Zm-12.22-117.794q30.957-20.129,63.417-20.133,20.738,0,31.389,8.414t7.659,22.237q-7.675,35.46-68.687,35.458H618.123Q625.519,213.853,656.477,193.717Zm401.013-34.556q11.91-18.932,14-28.547,2.535-11.72-4.54-19.983t-19.4-8.264q-29.76,0-55.867,41.468L791.147,466.265l-5.063,8.113q-6.981,11.424-8.8,19.833-2.408,11.12,4.618,18.931t19.347,7.813q31.254,0,55.707-39.365l51.55-82.636q32.353-52.286,63.013-52.285,22.838,0,19.134,17.128-1.431,6.612-9.337,19.532L938.963,451.24q-10.56,16.833-12.9,27.646-3.448,15.93,7.252,26.894t29.935,10.968h60.407q24.045,0,39.63-10.217a44.033,44.033,0,0,0,19.56-28.547q5.79-26.742-32.08-26.744H1016.2l48.61-78.729q11.04-17.727,14.3-32.754,5.4-24.939-9.61-41.017t-43.85-16.077q-20.445,0-55.705,17.129Zm148.73,165.271q-50.235,41.77-62.58,98.862-11.715,54.09,22.58,81.735,14.6,11.718,63.58,11.719,30.06,0,47.75-4.658t35.98-16.978q27.54-18.93,49.13-50.633t28.55-63.855q9.24-42.665-12.88-70.315t-65.69-27.646Q1256.435,282.663,1206.22,324.432Zm108.92,32.754q7.635,10.521,3.93,27.645-6.435,29.749-31.88,52.887-15.39,14.128-38.23,14.123-39.06,0-31.52-34.857,5.715-26.439,28.81-48.379,23.07-21.932,45.32-21.936Q1307.5,346.669,1315.14,357.186ZM1565.91,428.7q36.36,0,57.1-11.118,37.29-19.53,46.07-60.1,7.29-33.649-12.15-54.239t-58.81-20.584q-54.09,0-102.42,42.069T1434.81,424.8q-9.75,45.073,9.97,68.512t67.2,23.439h85.06q24.045,0,39.63-10.217a43.984,43.984,0,0,0,19.55-28.547q5.79-26.742-32.08-26.744h-89.26q-33.96,0-29.08-22.537h60.11Zm16.24-84.739q19.83,0,17.29,15.926-2.16,14.129-34.32,14.123h-33.06q22.44-30.043,50.09-30.049h0Zm253.75,50.783q4.56,15.03,2.16,26.143-6.57,30.356-48.35,30.35h-34.86q-23.745,0-39.51,10.367a44.354,44.354,0,0,0-19.74,28.7q-5.73,26.447,32.44,26.444h62.82a122.953,122.953,0,0,0,75.82-25.392q33.75-25.389,41.95-63.254,7.35-33.952-10.93-70.315l-11.99-23.739q-9.84-19.833-5.73-38.764a75.245,75.245,0,0,1,3.73-11.719,91.1,91.1,0,0,0,4.34-11.719q2.28-10.515-4.48-18.18T1865.1,246q-21.945,0-42.98,29.148l-57.54,81.133q-12.495,17.431-14.76,27.946-2.415,11.121,5.5,19.682t20.24,8.565q24.345,0,44.01-29.749l8.7-13.823ZM661.371,896.548q64.616,0,101.1-25.542,50.283-35.157,62.257-90.448,9.822-45.37-12.961-67.16t-80.49-21.786H616.771q-26.451,0-43.464,11.268t-21.439,31.7Q545.622,763.43,587.1,763.43h32.76L460.081,1019.75q-49.272,79.035-82.715,109.98t-70.116,30.95q-29.156,0-42.174-19.68t-5.8-53.04q7.089-32.745,31.23-62.35a189.128,189.128,0,0,1,58.764-47.928q41.715-21.931,102.4-27.345,26.061-2.4,36.514-9.015,18.03-11.114,22-29.448,3.771-17.424-8.345-28.1t-35.86-10.667q-49.295,0-104,20.884t-95.489,55.141q-75.644,63.406-93.982,148.145-13.725,63.39,16.759,103.07,30.482,39.66,93.3,39.66,59.51,0,112.267-35.46a287.245,287.245,0,0,0,63.994-58.89q27.768-34.56,84.81-125.91l76.561-123.2h41.176Zm41.74-133.118h20.137q27.345,0,22.536,22.236-8.457,39.067-56.544,39.064H664.9ZM884.147,937.716q-32.1,28.848-46.6,48.68t-19.065,40.864q-7.156,33.06,7.441,53.79t44.651,20.74h58.908q24.042,0,39.63-10.22t19.619-28.85q5.724-26.43-32.445-26.44H918.413q-27.656,0-22.252-24.94t63.074-70.619l3.956-3q49.887,0,58.149-38.163,5.985-27.642-33.384-27.645H917.628q-14.132,0-17.342-1.8t-3.459-9.015l-0.388-9.315q-0.561-21.03-22.8-21.035-22.542,0-41.434,30.35L780.1,944.928q-10.192,16.529-11.686,23.438-2.6,12.023,4.659,20.133t20.785,8.114q22.238,0,43.351-33.656l15.683-25.241h31.257ZM1113.83,909.47q-50.22,41.77-62.57,98.86-11.715,54.09,22.58,81.74,14.6,11.715,63.58,11.72,30.06,0,47.75-4.66t35.98-16.98q27.54-18.93,49.13-50.63t28.55-63.858q9.24-42.666-12.88-70.316t-65.7-27.645Q1164.045,867.7,1113.83,909.47Zm108.93,32.753q7.635,10.523,3.93,27.646-6.435,29.748-31.89,52.891-15.375,14.115-38.22,14.12-39.075,0-31.52-34.86,5.715-26.436,28.8-48.378t45.33-21.936Q1215.105,931.706,1222.76,942.223ZM415.408,1481.59q62.813,0,95.57-18.03,57.619-31.56,70.438-90.75,9.625-44.475-16.332-72.42t-76.752-27.95q-67.623,0-124.436,38.92t-75.7,98.41H236.8q-26.451,0-43.464,11.27t-21.5,32q-6.181,28.545,35.3,28.55h81.148q7.181,23.73,28.906,55.29,31.047,45.375,38.691,67.01t1.915,48.08q-9.042,41.76-46.065,72.56t-78.2,30.81q-37.271,0-56.421-23.29T165.691,1673q4.878-22.53,23.712-45.67t42.37-36.06L259,1576.54q26.565-14.415,30.858-34.25,3.188-14.73-5.014-24.04t-24.432-9.32q-31.263,0-74.535,29.15-81.633,54.99-99.455,137.32-14.57,67.32,20.877,110.44t105.475,43.12q90.462,0,160.223-64.01,50.955-46.575,64.358-108.48,13.79-63.705-20.135-120.8l-11.766-19.23-20.105-34.85h30.055Zm-12.22-117.8q30.956-20.13,63.416-20.13,20.738,0,31.389,8.41t7.66,22.24q-7.677,35.46-68.688,35.46H364.833Q372.231,1383.925,403.188,1363.79ZM804.2,1329.24q11.91-18.93,13.994-28.55,2.536-11.715-4.54-19.98t-19.4-8.27q-29.755,0-55.863,41.47L537.857,1636.34l-5.062,8.11q-6.981,11.43-8.8,19.84-2.408,11.115,4.618,18.93t19.347,7.81q31.255,0,55.708-39.36l51.55-82.64q32.352-52.29,63.013-52.29,22.837,0,19.134,17.13-1.433,6.615-9.338,19.53l-42.351,67.92q-10.561,16.83-12.9,27.64-3.449,15.93,7.252,26.89,10.7,10.98,29.935,10.97h60.41q24.042,0,39.63-10.21a44.034,44.034,0,0,0,19.554-28.55q5.789-26.745-32.08-26.74H762.915l48.6-78.73q11.051-17.73,14.3-32.76,5.4-24.93-9.6-41.02-15-16.065-43.856-16.07-20.442,0-55.7,17.13Zm148.725,165.27q-50.223,41.76-62.576,98.86-11.709,54.09,22.58,81.73,14.595,11.73,63.584,11.72,30.049,0,47.745-4.65,17.685-4.665,35.98-16.98,27.54-18.93,49.13-50.64t28.55-63.85q9.24-42.66-12.88-70.32-22.11-27.63-65.69-27.64Q1003.145,1452.74,952.927,1494.51Zm108.923,32.75q7.635,10.53,3.93,27.65-6.435,29.745-31.88,52.88-15.39,14.13-38.225,14.13-39.073,0-31.526-34.86,5.724-26.445,28.806-48.38t45.325-21.94Q1054.21,1516.74,1061.85,1527.26Zm189.49,155.36q10.65,4.2,41.32,4.2,28.545,0,45.71-5.71t35.51-21.03q56.07-46.575,72.07-120.5,8.46-39.06-5.75-62.95t-45.78-23.89q-30.36,0-56.2,22.24-7.23-18.03-26.16-18.03-27.345,0-44.32,27.04L1045.6,1840.98q-11.61,18.93-13.63,28.24-2.415,11.115,4.43,19.08t18.87,7.97q31.26,0,56.14-39.97l120.2-192.92Q1240.67,1678.41,1251.34,1682.62Zm48.49-128.92c1-1.8,2.27-4,3.84-6.61q20.835-35.16,51.19-35.15,27.645,0,21.34,29.14-7.35,33.96-38.65,66.11-15.48,15.93-36.81,15.93-14.73,0-20.65-3.91t-10.56-17.13Zm306.83,11.12q4.56,15.03,2.15,26.15-6.57,30.345-48.34,30.35H1525.6q-23.745,0-39.51,10.36a44.419,44.419,0,0,0-19.74,28.7q-5.715,26.445,32.45,26.44h62.81a122.986,122.986,0,0,0,75.83-25.39q33.735-25.4,41.94-63.25,7.35-33.96-10.92-70.32l-12-23.74q-9.825-19.83-5.73-38.76a75.569,75.569,0,0,1,3.74-11.72,92.924,92.924,0,0,0,4.34-11.72q2.28-10.515-4.48-18.18t-18.48-7.66q-21.945,0-42.98,29.15l-57.53,81.13q-12.495,17.43-14.77,27.95-2.4,11.115,5.51,19.68t20.24,8.56q24.345,0,44-29.75l8.71-13.82Z"/>
</svg>
